<?xml version="1.0" encoding="UTF-8" standalone="no"?>
<!-- Created with Inkscape (http://www.inkscape.org/) -->
<svg
   xmlns:svg="http://www.w3.org/2000/svg"
   xmlns="http://www.w3.org/2000/svg"
   version="1.0"
   width="450"
   height="450"
   id="svg2">
  <defs
     id="defs5" />
  <g
     transform="translate(61.622316,0)"
     id="g2553">
    <path
       d="M 231.05905,439.39622 C 211.3175,436.60615 183.80083,425.38265 172.98982,415.71091 C 152.20015,397.11211 158.93849,374.83735 188.42338,364.69266 C 221.56326,353.29037 276.84636,359.80781 302.55328,378.14763 C 349.39373,411.56454 304.74956,449.81086 231.05905,439.39622 z"
       id="path2412"
       style="fill:#000000" />
    <path
       d="M 151.63547,299.45486 C 141.59437,298.1347 137.885,295.51076 133.62826,286.71687 C 122.65178,264.04076 85.443835,195.76074 57.960454,147.8593 C 42.351438,120.65407 21.750175,68.269145 15.818092,52.065445 L 5.0325995,22.6042 C 2.6116298,-1.4232385 135.85828,-1.0516548 223.43582,18.244065 C 225.21368,18.773617 233.58011,95.177766 238.80828,165.6673 L 248.31411,293.83017 L 230.14326,295.90577 C 197.24548,299.66359 164.48682,301.14451 151.63547,299.45486 z"
       id="path2392"
       style="fill:#000000" />
  </g>
</svg>
