<?xml version="1.0" encoding="iso-8859-1"?>
<!DOCTYPE svg PUBLIC "-//W3C//DTD SVG 1.1//EN" "http://www.w3.org/Graphics/SVG/1.1/DTD/svg11.dtd">
    <svg class="icon icon--link" viewBox="0 0 85.69 85.69" xmlns="http://www.w3.org/2000/svg">
      <path
        d="m49.71 65.61c.78 0 1.25.14 1.42.42s0 .69-.59 1.25l-11.71 11.72a21.94 21.94 0 0 1 -16.07 6.69 21.94 21.94 0 0 1 -16.07-6.69 22.65 22.65 0 0 1 0-32.14l16.07-16.07a21.38 21.38 0 0 1 5.52-4 21.55 21.55 0 0 1 10.55-2.69h.33a26.68 26.68 0 0 1 8.37 1.67v.17a13.49 13.49 0 0 1 2.85 1.34 22.09 22.09 0 0 1 4.52 3.51 5.69 5.69 0 1 1 -8 8 11.31 11.31 0 0 0 -16.07 0l-16.1 16.11a11.3 11.3 0 0 0 0 16.06 10.92 10.92 0 0 0 8 3.35 10.92 10.92 0 0 0 8-3.35l6.53-6.52c.45-.45 1.62-.39 3.52.16a29.76 29.76 0 0 0 8.93 1.01zm13.22-65.61a21.94 21.94 0 0 1 16.07 6.69 21.94 21.94 0 0 1 6.69 16.07 21.92 21.92 0 0 1 -6.69 16.07l-16.07 16.07a22.23 22.23 0 0 1 -11.72 6.19c-.44.11-1 .22-1.5.33a14.75 14.75 0 0 1 -2.51.17 18.79 18.79 0 0 1 -2.51-.17c-1-.11-1.79-.22-2.35-.33-1-.22-1.67-.39-2-.5a22.66 22.66 0 0 1 -9.54-5.69 5.69 5.69 0 1 1 8-8 11.31 11.31 0 0 0 16.07 0l16.13-16.11a11 11 0 0 0 3.35-8 11 11 0 0 0 -3.35-8 11.3 11.3 0 0 0 -16.06 0l-6.7 6.69c-.45.45-1.62.39-3.51-.16a29.83 29.83 0 0 0 -8.87-1c-.79.11-1.26 0-1.43-.33s0-.78.59-1.34l11.84-11.96a21.92 21.92 0 0 1 16.07-6.69z">
      </path>
    </svg>